<?xml version="1.0" encoding="utf-8"?>
<!-- Generator: Adobe Illustrator 26.0.1, SVG Export Plug-In . SVG Version: 6.00 Build 0)  -->
<svg version="1.1" id="Layer_1" xmlns="http://www.w3.org/2000/svg" xmlns:xlink="http://www.w3.org/1999/xlink" x="0px" y="0px"
	 viewBox="0 0 88 75" style="enable-background:new 0 0 88 75;" xml:space="preserve">
<style type="text/css">
	.st0{fill:#FFA915;}
	.st1{fill:#9C1CFF;}
	.st2{fill:#60D394;}
	.st3{enable-background:new    ;}
	.st4{fill:#EBEBEB;}
</style>
<g>
	<g id="Group_6358" transform="translate(360 90)">
		<circle id="Ellipse_4708" class="st0" cx="-342.9" cy="-52.7" r="17.1"/>
		<path id="Path_10446" class="st1" d="M-296.1-52.4l-10.7-18.5c-3.1-5.4-10-7.2-15.4-4.1c-1.7,1-3.1,2.4-4.1,4.1l-2.1,3.7
			c3.9,3.8,6,9.1,6,14.5c0,6.5-3.1,12.7-8.4,16.6c1.1,0.4,2.3,0.6,3.6,0.6h21.3c6.2,0,11.2-5,11.2-11.2
			C-294.6-48.8-295.1-50.7-296.1-52.4z"/>
		<path id="Path_10447" class="st2" d="M-285.3-89.9h-7.6c-7.4,0-13.3,6-13.3,13.3v0.4c0.6,0.7,1.2,1.5,1.7,2.3l12.8,22.1
			c3,5.2,2.2,11.8-2,16.1c0.3,0,0.6,0,0.9,0h7.6c7.4,0,13.3-6,13.3-13.3v-27.7C-272-83.9-278-89.9-285.3-89.9z"/>
	</g>
	<g class="st3">
		<path class="st4" d="M3.9,71L0,61.6h1.5l3.1,7.6l3.1-7.6h1.5L5.4,71H3.9z"/>
		<path class="st4" d="M18.6,68.1c-0.6,1.8-2.3,3-4.2,3c-2.7,0-4.6-2-4.6-4.8c0-2.7,2-4.8,4.6-4.8c2.6,0,4.6,2.1,4.6,4.7
			c0,0.2,0,0.4,0,0.6h-7.6c0.2,1.8,1.4,3,3.1,3c1.2,0,2.2-0.7,2.7-1.6H18.6z M17.5,65.8c-0.2-1.7-1.5-2.9-3.1-2.9
			c-1.6,0-2.9,1.2-3.1,2.9H17.5z"/>
		<path class="st4" d="M24.5,62.9c-1.5,0-2.6,1.4-2.6,3.4V71h-1.4v-9.4h1.4v2c0.4-1.2,1.5-2.1,2.8-2.1c2.4,0,3.9,1.9,3.9,4.8V71
			h-1.4v-4.7C27.2,64.2,26.2,62.9,24.5,62.9z"/>
		<path class="st4" d="M34.3,62.9c-1.5,0-2.6,1.4-2.6,3.4V71h-1.4v-9.4h1.4v2c0.4-1.2,1.5-2.1,2.8-2.1c2.4,0,3.9,1.9,3.9,4.8V71H37
			v-4.7C37,64.2,36,62.9,34.3,62.9z"/>
		<path class="st4" d="M41.4,63.6c0.4-1.3,1.9-2.1,3.4-2.1c2.7,0,4.5,1.9,4.5,4.8c0,2.9-1.8,4.8-4.5,4.8c-1.5,0-2.9-0.9-3.4-2.1V75
			H40V61.6h1.4V63.6z M44.6,62.9c-1.9,0-3.2,1.4-3.2,3.4c0,2,1.4,3.4,3.2,3.4c1.9,0,3.2-1.4,3.2-3.4C47.9,64.3,46.5,62.9,44.6,62.9z
			"/>
		<path class="st4" d="M50.8,71V57.7h1.4V71H50.8z"/>
		<path class="st4" d="M61.6,69.1c-0.4,1.2-1.9,2.1-3.4,2.1c-2.7,0-4.5-1.9-4.5-4.8c0-2.9,1.8-4.8,4.5-4.8c1.5,0,2.9,0.8,3.4,2.1v-2
			H63V71h-1.4V69.1z M58.4,69.7c1.9,0,3.2-1.4,3.2-3.4c0-2-1.4-3.4-3.2-3.4c-1.9,0-3.2,1.4-3.2,3.4C55.2,68.4,56.5,69.7,58.4,69.7z"
			/>
		<path class="st4" d="M69.2,72.1c-0.7,1.7-1.2,2.5-2.9,2.5h-0.5v-1.4h0.4c0.7,0,1.2-0.4,1.6-1.3l0.3-0.8l-3.9-9.4h1.5l3.1,7.6
			l3.1-7.6h1.5L69.6,71L69.2,72.1z"/>
		<path class="st4" d="M73.7,69.4c0.5,0,0.9,0.3,0.9,0.9c0,0.5-0.3,0.9-0.9,0.9c-0.6,0-0.9-0.4-0.9-0.9
			C72.8,69.7,73.2,69.4,73.7,69.4z"/>
		<path class="st4" d="M83.1,69.1c-0.4,1.2-1.9,2.1-3.4,2.1c-2.7,0-4.5-1.9-4.5-4.8c0-2.9,1.8-4.8,4.5-4.8c1.5,0,2.9,0.8,3.4,2.1v-2
			h1.4V71h-1.4V69.1z M79.9,69.7c1.9,0,3.2-1.4,3.2-3.4c0-2-1.4-3.4-3.2-3.4c-1.9,0-3.2,1.4-3.2,3.4C76.7,68.4,78,69.7,79.9,69.7z"
			/>
		<path class="st4" d="M87.1,57.8c0.5,0,0.9,0.3,0.9,0.9c0,0.5-0.3,0.9-0.9,0.9c-0.5,0-0.9-0.3-0.9-0.9
			C86.3,58.2,86.6,57.8,87.1,57.8z M86.4,71v-9.4h1.4V71H86.4z"/>
	</g>
</g>
</svg>
